<svg xmlns="http://www.w3.org/2000/svg" enable-background="new 0 0 192 192" height="192" viewBox="0 0 192 192" width="192"><rect fill="none" height="192" width="192"/><g><g><g><path d="M36,76c-11.05,0-20,8.95-20,20c0,11.05,8.95,20,20,20h60V76H36z" fill="#FBBC04"/></g><path d="M96,16c-11.05,0-20,8.95-20,20v80h40V36C116,24.95,107.05,16,96,16z" fill="#EA4335"/><g><path d="M76,96v20v40c0,11.05,8.95,20,20,20s20-8.95,20-20v-40V96H76z" fill="#34A853"/></g><g><path d="M156,76h-40H96c-11.05,0-20,8.95-20,20c0,11.05,8.95,20,20,20h20h40c11.05,0,20-8.95,20-20 C176,84.95,167.05,76,156,76z" fill="#4285F4"/></g><circle cx="96" cy="36" fill="#FFFFFF" r="10"/><g><circle cx="36" cy="96" fill="#FFFFFF" r="10"/></g><g><circle cx="96" cy="156" fill="#FFFFFF" r="10"/></g><g><circle cx="156" cy="96" fill="#FFFFFF" r="10"/></g><g><circle cx="96" cy="96" fill="#FFFFFF" r="10"/></g></g></g></svg>